<svg xmlns="http://www.w3.org/2000/svg" id="SvgjsSvg1074" width="4096" height="1783.0284920488434" version="1.1" xmlns:xlink="http://www.w3.org/1999/xlink" xmlns:svgjs="http://svgjs.com/svgjs"><defs id="SvgjsDefs1075"></defs><g id="SvgjsG1076" transform="translate(328, 328) scale(34.4)" opacity="1"><defs id="SvgjsDefs1024"></defs><g id="SvgjsG1025" transform="scale(0.1607717041800643)" opacity="1"><g id="SvgjsG1026" class="mYC2KeP0Z" transform="translate(622, 0) scale(-1 1)" light-content="false" fill="#000000"><path d="M0 0 h 550.8157099697885 v 203.78247734138975 h -550.8157099697885 Z"></path></g><g id="SvgjsG1027" class="CtzM6Bx1bG" transform="translate(-1.1894672571069738, 13.737049020739734) scale(1.701669895718136)" light-content="false" non-strokable="false" fill="#50e3c2"><path d="M47 1.732l37.301 21.536a6 6 0 0 1 3 5.196v43.072a6 6 0 0 1-3 5.196L47 98.268a6 6 0 0 1-6 0L3.699 76.732a6 6 0 0 1-3-5.196V28.464a6 6 0 0 1 3-5.196L41 1.732a6 6 0 0 1 6 0z"></path></g><g id="SvgjsG1028" class="YMSDQrIdm5" transform="translate(20.241393274779586, 45.37792892693513) scale(1.0688522975942285)" light-content="true" non-strokable="false" fill="#ffffff"><path d="M81.25 37.5v50h-12.5v-50zm-62.5 25h12.5v-50h-12.5zm31.25 0h12.5V50H50z"></path></g><g id="SvgjsG1029" class="text" transform="translate(259.0413318083312, 122.83858264686299) scale(1)" light-content="true" fill="#ffffff"><path d="M-44.86 -45.75C-50.31 -45.75 -55.68 -42.3 -60.96 -35.42C-60.73 -36.55 -60.61 -37.59 -60.61 -38.54C-60.61 -40.44 -61.37 -42.17 -62.88 -43.74C-64.39 -45.32 -65.68 -46.1 -66.75 -46.1C-68.06 -46.1 -68.71 -45.21 -68.71 -43.43C-68.71 -35.42 -71.56 -19.88 -77.25 3.2C-79.15 10.86 -80.1 15.19 -80.1 16.2C-80.1 17.21 -79.64 18.35 -78.72 19.62C-77.8 20.9 -76.93 21.54 -76.09 21.54C-75.26 21.54 -74.31 19.52 -73.25 15.49C-72.71 13.53 -72.24 11.69 -71.82 9.97C-71.41 8.25 -70.9 6.08 -70.31 3.47C-69.72 0.86 -69.3 -0.95 -69.06 -1.96C-68 -1.66 -66.87 -1.51 -65.68 -1.51C-62.66 -1.51 -59.35 -2.42 -55.76 -4.23C-52.17 -6.04 -48.89 -8.31 -45.92 -11.04C-42.96 -13.77 -40.47 -16.87 -38.45 -20.34C-36.43 -23.81 -35.42 -27.28 -35.42 -30.75C-35.42 -34.22 -36.36 -37.59 -38.23 -40.85C-40.09 -44.11 -42.3 -45.75 -44.86 -45.75ZM-66.57 -8.45L-67.46 -8.45L-65.41 -16.64C-63.1 -22.99 -59.97 -28.15 -56.03 -32.13C-52.08 -36.1 -48.95 -38.09 -46.64 -38.09C-44.32 -38.09 -43.16 -35.63 -43.16 -30.7C-43.16 -27.2 -44.46 -23.69 -47.04 -20.16C-49.62 -16.63 -52.73 -13.79 -56.38 -11.66C-60.03 -9.52 -63.43 -8.45 -66.57 -8.45Z M-18.6 -61.5C-19.55 -60.43 -20.02 -59.3 -20.02 -58.12C-20.02 -56.93 -19.15 -55.48 -17.4 -53.76C-15.65 -52.04 -14.06 -51.17 -12.64 -51.17C-12.04 -51.17 -11.48 -51.41 -10.95 -51.89C-10.41 -52.36 -10.15 -52.9 -10.15 -53.49C-10.15 -55.09 -10.83 -57.09 -12.19 -59.5C-13.56 -61.9 -14.73 -63.1 -15.71 -63.1C-16.69 -63.1 -17.65 -62.57 -18.6 -61.5ZM-20.47 -45.48C-21.36 -45.48 -22.22 -44.03 -23.05 -41.12C-23.47 -39.58 -23.84 -38.05 -24.16 -36.53C-24.49 -35.02 -24.92 -33.03 -25.45 -30.57C-25.99 -28.11 -26.51 -25.9 -27.01 -23.94C-27.52 -21.98 -28.2 -19.45 -29.06 -16.33C-29.92 -13.22 -30.57 -10.72 -31.02 -8.86C-31.46 -6.99 -31.68 -5.62 -31.68 -4.76C-31.68 -3.9 -31.39 -3.13 -30.79 -2.45C-30.2 -1.77 -29.49 -1.42 -28.66 -1.42C-27.12 -1.42 -25.84 -2.91 -24.83 -5.87C-22.22 -13.94 -20.05 -21.23 -18.33 -27.72C-16.61 -34.22 -15.75 -38.12 -15.75 -39.43C-15.75 -40.73 -16.26 -42.07 -17.27 -43.43C-18.27 -44.8 -19.34 -45.48 -20.47 -45.48Z M12.42 -38.4C8.83 -33.69 4.18 -26.49 -1.51 -16.82C-0.21 -20.86 0.93 -25.2 1.91 -29.86C2.89 -34.52 3.38 -37.66 3.38 -39.29C3.38 -40.93 2.73 -42.42 1.42 -43.79C0.12 -45.15 -1.19 -45.83 -2.49 -45.83C-3.56 -45.83 -4.18 -43.67 -4.36 -39.34C-4.48 -32.87 -5.22 -27.1 -6.59 -22.03C-7.95 -16.95 -9.2 -12.7 -10.32 -9.26C-10.74 -7.95 -10.95 -7.15 -10.95 -6.85C-10.95 -5.84 -10.38 -4.67 -9.26 -3.34C-8.13 -2 -7.13 -1.33 -6.27 -1.33C-5.41 -1.33 -4.24 -2.43 -2.76 -4.63C-1.99 -5.76 -1.29 -6.79 -0.67 -7.74C-0.04 -8.69 0.8 -10.03 1.87 -11.75C2.94 -13.47 3.8 -14.83 4.45 -15.84C5.1 -16.85 6.05 -18.33 7.3 -20.29C8.54 -22.25 9.49 -23.75 10.15 -24.79C10.8 -25.82 11.61 -27.09 12.59 -28.57C13.57 -30.05 14.39 -31.19 15.04 -32C15.69 -32.8 16.39 -33.61 17.13 -34.44C17.87 -35.27 18.54 -35.87 19.13 -36.22C19.73 -36.58 20.31 -36.76 20.87 -36.76C21.43 -36.76 22 -36.31 22.56 -35.42C23.13 -34.53 23.41 -33.15 23.41 -31.28C23.41 -29.41 22.86 -26.63 21.76 -22.92C20.66 -19.21 19.48 -15.44 18.2 -11.61C16.92 -7.79 16.29 -5.25 16.29 -4C16.29 -2.22 16.94 -1.33 18.24 -1.33C21.09 -1.33 24.3 -7.03 27.86 -18.42C29.82 -24.59 30.79 -29.81 30.79 -34.09C30.79 -36.82 29.77 -39.4 27.72 -41.83C25.68 -44.26 23.51 -45.48 21.23 -45.48C18.94 -45.48 16.01 -43.12 12.42 -38.4Z M72.45 -25.36C72.45 -26.31 72.09 -27.29 71.38 -28.3C71.44 -28.6 71.47 -29.1 71.47 -29.81C71.47 -35.39 70.1 -39.69 67.37 -42.72C65.71 -44.56 63.66 -45.48 61.23 -45.48C57.43 -45.48 53.55 -43.43 49.57 -39.34C45.6 -35.24 42.44 -30.62 40.09 -25.45C37.75 -20.29 36.58 -16.15 36.58 -13.04C36.58 -9.92 37.65 -7.19 39.78 -4.85C41.92 -2.51 44.44 -1.33 47.35 -1.33C50.26 -1.33 54.02 -3.06 58.65 -6.5C58.3 -5.25 57.85 -3.6 57.32 -1.56C56.78 0.49 56.37 2.08 56.07 3.2C55.77 4.33 55.37 5.68 54.87 7.25C54.36 8.83 53.9 10.04 53.49 10.9C53.07 11.76 52.57 12.62 51.98 13.48C51.38 14.34 50.76 14.97 50.11 15.35C49.45 15.74 48.48 15.93 47.17 15.93C45.86 15.93 44.51 15.49 43.12 14.6C41.73 13.71 40.69 12.74 40.01 11.7C39.32 10.67 38.6 9.7 37.83 8.81C37.05 7.92 36.36 7.48 35.73 7.48C35.11 7.48 34.52 7.95 33.95 8.9C33.39 9.85 33.11 10.8 33.11 11.75C33.11 14 34.55 16.27 37.42 18.56C40.3 20.84 43.85 21.98 48.06 21.98C53.22 21.98 57.05 18.96 59.54 12.91C60.79 10 62.33 5.15 64.17 -1.65C66.01 -8.44 67.73 -13.65 69.33 -17.27C71.41 -20.29 72.45 -22.99 72.45 -25.36ZM43.79 -12.1C43.79 -14.6 44.74 -17.89 46.64 -21.98C48.53 -26.08 50.94 -29.79 53.85 -33.11C56.75 -36.43 59.36 -38.09 61.68 -38.09C62.63 -38.09 63.4 -37.6 63.99 -36.62C64.58 -35.64 64.97 -34.68 65.15 -33.73C65.33 -32.78 65.5 -31.51 65.68 -29.9C65.86 -28.3 66.07 -27.12 66.31 -26.34C64.64 -21.66 61.8 -17.55 57.76 -14.02C53.73 -10.49 50.23 -8.72 47.26 -8.72C46.25 -8.72 45.42 -9.03 44.77 -9.66C44.11 -10.28 43.79 -11.1 43.79 -12.1Z"></path></g><g id="SvgjsG1030" class="text" transform="translate(433.57494419512506, 142.50877246033014) scale(1)" light-content="true" fill="#50e3c2"><path d="M-93.58 -1.12C-93.58 -0.37 -93.2 0 -92.46 0L-83.94 0C-83.2 0 -82.82 -0.37 -82.82 -1.12L-82.82 -77.28C-82.82 -78.03 -83.2 -78.4 -83.94 -78.4L-92.46 -78.4C-93.2 -78.4 -93.58 -78.03 -93.58 -77.28Z M-36.23 -24.08C-35.49 -24.08 -35.11 -24.45 -35.11 -25.2L-35.11 -40.1C-35.11 -45.4 -36.79 -49.69 -40.15 -52.98C-43.51 -56.26 -48.1 -57.9 -53.93 -57.9C-59.68 -57.9 -64.25 -56.26 -67.65 -52.98C-71.05 -49.69 -72.74 -45.4 -72.74 -40.1L-72.74 -16.8C-72.74 -11.42 -71.05 -7.13 -67.65 -3.92C-64.25 -0.71 -59.68 0.9 -53.93 0.9C-48.48 0.9 -44.17 -0.47 -40.99 -3.19C-37.82 -5.92 -35.97 -9.71 -35.45 -14.56C-35.37 -14.86 -35.43 -15.12 -35.62 -15.34C-35.8 -15.57 -36.08 -15.68 -36.46 -15.68L-44.74 -16.13C-45.34 -16.13 -45.75 -15.83 -45.98 -15.23C-46.35 -13.22 -47.25 -11.57 -48.66 -10.3C-50.08 -9.03 -51.84 -8.4 -53.93 -8.4C-56.32 -8.4 -58.26 -9.26 -59.75 -10.98C-61.25 -12.69 -61.99 -14.9 -61.99 -17.58L-61.99 -23.63C-61.99 -23.93 -61.84 -24.08 -61.54 -24.08ZM-59.75 -46.03C-58.26 -47.75 -56.32 -48.61 -53.93 -48.61C-51.46 -48.61 -49.49 -47.75 -47.99 -46.03C-46.5 -44.31 -45.75 -42.11 -45.75 -39.42L-45.75 -33.49C-45.75 -33.19 -45.9 -33.04 -46.2 -33.04L-61.54 -33.04C-61.84 -33.04 -61.99 -33.19 -61.99 -33.49L-61.99 -39.42C-61.99 -42.11 -61.25 -44.31 -59.75 -46.03Z M6.5 -52.75C3.02 -56.19 -1.44 -57.9 -6.89 -57.9C-11.97 -57.9 -16.22 -56.41 -19.66 -53.42C-23.09 -50.44 -24.99 -46.55 -25.37 -41.78C-25.37 -41.03 -24.99 -40.66 -24.25 -40.66L-15.18 -40.66C-14.43 -40.66 -14.06 -41.03 -14.06 -41.78C-13.83 -43.79 -13.09 -45.43 -11.82 -46.7C-10.55 -47.97 -8.98 -48.61 -7.11 -48.61C-4.72 -48.61 -2.78 -47.66 -1.29 -45.75C0.21 -43.85 0.95 -41.33 0.95 -38.19L0.95 -34.94C0.95 -34.65 0.8 -34.5 0.5 -34.5L-5.99 -34.5C-12.34 -34.5 -17.47 -32.98 -21.39 -29.96C-25.31 -26.94 -27.27 -22.18 -27.27 -15.68C-27.27 -9.48 -25.65 -5.17 -22.4 -2.74C-19.15 -0.32 -15.4 0.9 -11.14 0.9C-6.07 0.9 -2.22 -0.67 0.39 -3.81C0.54 -3.96 0.67 -3.99 0.78 -3.92C0.9 -3.85 0.95 -3.73 0.95 -3.58L0.95 -1.12C0.95 -0.37 1.33 0 2.07 0L10.58 0C11.33 0 11.7 -0.37 11.7 -1.12L11.7 -39.2C11.7 -44.8 9.97 -49.32 6.5 -52.75ZM-1.96 -10.98C-3.9 -9.33 -6.18 -8.51 -8.79 -8.51C-11.03 -8.51 -12.82 -9.18 -14.17 -10.53C-15.51 -11.87 -16.18 -13.89 -16.18 -16.58C-16.18 -19.64 -15.29 -21.97 -13.5 -23.58C-11.7 -25.18 -9.31 -25.98 -6.33 -25.98L0.5 -25.98C0.8 -25.98 0.95 -25.83 0.95 -25.54L0.95 -17.92C0.95 -14.93 -0.02 -12.62 -1.96 -10.98Z M48.78 -56.34C47.43 -57.16 45.83 -57.57 43.96 -57.57C39.18 -57.57 35.71 -54.81 33.54 -49.28C33.47 -49.06 33.38 -48.96 33.26 -49C33.15 -49.04 33.1 -49.17 33.1 -49.39L33.1 -55.89C33.1 -56.63 32.72 -57.01 31.98 -57.01L23.46 -57.01C22.72 -57.01 22.34 -56.63 22.34 -55.89L22.34 -1.12C22.34 -0.37 22.72 0 23.46 0L31.98 0C32.72 0 33.1 -0.37 33.1 -1.12L33.1 -33.82C33.1 -37.11 33.86 -39.91 35.39 -42.22C36.92 -44.54 38.85 -45.85 41.16 -46.14C41.53 -46.22 42.13 -46.26 42.95 -46.26C44.22 -46.26 45.34 -46.07 46.31 -45.7C47.13 -45.47 47.58 -45.7 47.66 -46.37L49.34 -54.88C49.49 -55.55 49.3 -56.04 48.78 -56.34Z M89.94 -53.03C87.43 -56.21 83.83 -57.79 79.13 -57.79C74.27 -57.79 70.5 -56.15 67.82 -52.86C67.67 -52.71 67.52 -52.66 67.37 -52.7C67.22 -52.73 67.14 -52.83 67.14 -52.98L67.14 -55.89C67.14 -56.63 66.77 -57.01 66.02 -57.01L57.51 -57.01C56.77 -57.01 56.39 -56.63 56.39 -55.89L56.39 -1.12C56.39 -0.37 56.77 0 57.51 0L66.02 0C66.77 0 67.14 -0.37 67.14 -1.12L67.14 -38.19C67.14 -41.4 67.85 -43.92 69.27 -45.75C70.69 -47.58 72.71 -48.5 75.32 -48.5C77.71 -48.5 79.58 -47.64 80.92 -45.92C82.26 -44.2 82.94 -41.78 82.94 -38.64L82.94 -1.12C82.94 -0.37 83.31 0 84.06 0L92.57 0C93.31 0 93.69 -0.37 93.69 -1.12L93.69 -39.54C93.69 -45.36 92.44 -49.86 89.94 -53.03Z"></path></g></g></g></svg>